<?xml version="1.0" encoding="UTF-8" standalone="no"?>
<!-- Generator: visioncortex VTracer 0.6.3 -->

<svg
   version="1.1"
   width="512"
   height="512"
   id="svg2"
   sodipodi:docname="about_us_icon.svg"
   inkscape:version="1.3.2 (091e20e, 2023-11-25, custom)"
   xmlns:inkscape="http://www.inkscape.org/namespaces/inkscape"
   xmlns:sodipodi="http://sodipodi.sourceforge.net/DTD/sodipodi-0.dtd"
   xmlns="http://www.w3.org/2000/svg"
   xmlns:svg="http://www.w3.org/2000/svg">
  <defs
     id="defs2" />
  <sodipodi:namedview
     id="namedview2"
     pagecolor="#ffffff"
     bordercolor="#000000"
     borderopacity="0.25"
     inkscape:showpageshadow="2"
     inkscape:pageopacity="0.0"
     inkscape:pagecheckerboard="0"
     inkscape:deskcolor="#d1d1d1"
     inkscape:zoom="0.53654489"
     inkscape:cx="734.32812"
     inkscape:cy="560.06497"
     inkscape:window-width="1920"
     inkscape:window-height="991"
     inkscape:window-x="-9"
     inkscape:window-y="-9"
     inkscape:window-maximized="1"
     inkscape:current-layer="svg2" />
  <path
     d="M0 0 C3.12 2.62 6.04 5.33 8.81 8.31 C9.48 8.97 10.15 9.64 10.83 10.32 C27.16 27.2 31.36 47.98 31.08 70.77 C30.59 87.71 23.28 104.77 11.81 117.31 C11.01 118.2 10.21 119.1 9.39 120.02 C-0.19 130.16 -11.17 136.43 -24.19 141.31 C-24.89 141.58 -25.6 141.84 -26.32 142.11 C-28.28 142.85 -30.23 143.58 -32.19 144.31 C-30.92 144.54 -29.65 144.77 -28.34 145.01 C7.57 151.73 40.53 169.51 61.69 200.19 C91.44 244.94 86.81 284.55 86.81 340.31 C-2.95 340.31 -92.71 340.31 -185.19 340.31 C-185.19 223.41 -185.19 223.41 -144.31 181.94 C-137.48 175.19 -130.3 169.43 -122.19 164.31 C-121.08 163.61 -119.98 162.9 -118.84 162.18 C-102.66 152.42 -84.86 146.78 -66.19 144.31 C-67.26 143.92 -68.33 143.53 -69.44 143.12 C-83.73 137.72 -95.07 131.94 -106.19 121.31 C-107.13 120.48 -107.13 120.48 -108.09 119.64 C-120.2 108.57 -127.94 90.35 -129.49 74.15 C-129.62 70.93 -129.66 67.73 -129.62 64.5 C-129.62 63.36 -129.61 62.22 -129.6 61.05 C-129.21 42.37 -122.43 25.45 -110.19 11.31 C-109.29 10.12 -109.29 10.12 -108.38 8.91 C-100.18 -0.81 -88.93 -7.23 -77.19 -11.69 C-76.08 -12.12 -74.97 -12.55 -73.82 -13 C-49.05 -21.09 -20.58 -15.63 0 0 Z M-81 40.56 C-88.09 50.38 -89.34 60.53 -88.19 72.31 C-85.93 83.09 -79.44 91.42 -70.61 97.8 C-60.64 104.01 -49.42 105.04 -38.04 102.65 C-26.85 99.03 -18.38 91.12 -12.87 80.86 C-8.82 71.41 -8.59 60.14 -11.75 50.38 C-16.33 39.7 -24.58 31.45 -35.25 26.88 C-52.67 21.23 -69.39 26.79 -81 40.56 Z M-109.19 206.31 C-110.38 207.29 -110.38 207.29 -111.6 208.29 C-131.88 225.53 -142.62 250.8 -144.81 277 C-145.21 284.76 -145.19 292.54 -145.19 300.31 C-81.83 300.31 -18.47 300.31 46.81 300.31 C46.81 265.89 41.34 236.54 16.68 211.09 C-17.19 178.24 -73.24 175.11 -109.19 206.31 Z "
     fill="#19D2C0"
     transform="translate(425.1875,15.6875)"
     id="path1"
     style="fill:#f9b365;fill-opacity:1" />
  <path
     d="M0 0 C3.12 2.62 6.04 5.33 8.81 8.31 C9.48 8.97 10.15 9.64 10.83 10.32 C27.16 27.2 31.36 47.98 31.08 70.77 C30.59 87.71 23.28 104.77 11.81 117.31 C11.01 118.2 10.21 119.1 9.39 120.02 C-0.19 130.16 -11.17 136.43 -24.19 141.31 C-24.89 141.58 -25.6 141.84 -26.32 142.11 C-28.28 142.85 -30.23 143.58 -32.19 144.31 C-30.92 144.54 -29.65 144.77 -28.34 145.01 C7.57 151.73 40.53 169.51 61.69 200.19 C91.44 244.94 86.81 284.55 86.81 340.31 C-2.95 340.31 -92.71 340.31 -185.19 340.31 C-185.19 223.41 -185.19 223.41 -144.31 181.94 C-137.48 175.2 -130.31 169.41 -122.19 164.31 C-121.62 163.95 -121.05 163.59 -120.46 163.22 C-103.98 152.94 -85.45 146.72 -66.19 144.31 C-67.26 143.92 -68.33 143.53 -69.44 143.12 C-83.72 137.72 -95.08 131.95 -106.19 121.31 C-106.83 120.74 -107.47 120.16 -108.12 119.57 C-116.07 112.17 -121.34 102.37 -125.19 92.31 C-125.58 91.29 -125.98 90.26 -126.38 89.2 C-133.21 68.13 -130.25 45.32 -120.33 25.89 C-117.48 20.57 -114.14 15.88 -110.19 11.31 C-109.29 10.12 -109.29 10.12 -108.38 8.91 C-100.18 -0.81 -88.93 -7.23 -77.19 -11.69 C-76.08 -12.12 -74.97 -12.55 -73.82 -13 C-49.05 -21.09 -20.58 -15.63 0 0 Z M-81 40.56 C-88.09 50.38 -89.34 60.53 -88.19 72.31 C-85.93 83.09 -79.44 91.42 -70.61 97.8 C-60.64 104.01 -49.42 105.04 -38.04 102.65 C-26.85 99.03 -18.38 91.12 -12.87 80.86 C-8.82 71.41 -8.59 60.14 -11.75 50.38 C-16.33 39.7 -24.58 31.45 -35.25 26.88 C-52.67 21.23 -69.39 26.79 -81 40.56 Z M-109.19 206.31 C-110.38 207.29 -110.38 207.29 -111.6 208.29 C-131.88 225.53 -142.62 250.8 -144.81 277 C-145.21 284.76 -145.19 292.54 -145.19 300.31 C-81.83 300.31 -18.47 300.31 46.81 300.31 C46.81 265.89 41.34 236.54 16.68 211.09 C-17.19 178.24 -73.24 175.11 -109.19 206.31 Z "
     fill="#0CB8DE"
     transform="translate(185.1875,171.6875)"
     id="path2"
     style="fill:#10b97c;fill-opacity:1" />
</svg>
