<?xml version="1.0" encoding="UTF-8" standalone="no"?>
<svg
   fill="none"
   viewBox="0 0 24 24"
   stroke-width="1.5"
   stroke="blue"
   class="w-6 h-6"
   version="1.1"
   id="svg1"
   sodipodi:docname="telephone_icon.svg"
   inkscape:version="1.3.2 (091e20e, 2023-11-25, custom)"
   xmlns:inkscape="http://www.inkscape.org/namespaces/inkscape"
   xmlns:sodipodi="http://sodipodi.sourceforge.net/DTD/sodipodi-0.dtd"
   xmlns="http://www.w3.org/2000/svg"
   xmlns:svg="http://www.w3.org/2000/svg">
  <defs
     id="defs1" />
  <sodipodi:namedview
     id="namedview1"
     pagecolor="#ffffff"
     bordercolor="#000000"
     borderopacity="0.25"
     inkscape:showpageshadow="2"
     inkscape:pageopacity="0.0"
     inkscape:pagecheckerboard="0"
     inkscape:deskcolor="#d1d1d1"
     inkscape:zoom="32.375"
     inkscape:cx="12"
     inkscape:cy="12"
     inkscape:window-width="1920"
     inkscape:window-height="991"
     inkscape:window-x="-9"
     inkscape:window-y="-9"
     inkscape:window-maximized="1"
     inkscape:current-layer="svg1" />
  <path
     stroke-linecap="round"
     stroke-linejoin="round"
     d="M14.25 9.75v-4.5m0 4.5h4.5m-4.5 0l6-6m-3 18c-8.284 0-15-6.716-15-15V4.5A2.25 2.25 0 014.5 2.25h1.372c.516 0 .966.351 1.091.852l1.106 4.423c.11.44-.054.902-.417 1.173l-1.293.97a1.062 1.062 0 00-.38 1.21 12.035 12.035 0 007.143 7.143c.441.162.928-.004 1.21-.38l.97-1.293a1.125 1.125 0 011.173-.417l4.423 1.106c.5.125.852.575.852 1.091V19.5a2.25 2.25 0 01-2.25 2.25h-2.25z"
     id="path1"
     style="fill:#afebd6;fill-opacity:1;stroke:none" />
</svg>
